HIERARCHY
ROOT mixamorig:Hips
{
	OFFSET 0.000000 201.639420 0.000000
	CHANNELS 6 Xposition Yposition Zposition Xrotation Yrotation Zrotation
	JOINT mixamorig:Spine
	{
		OFFSET 0.006200 19.524994 -2.481800
		CHANNELS 3 Xrotation Yrotation Zrotation
		JOINT mixamorig:Spine1
		{
			OFFSET -0.000900 22.835007 -2.825400
			CHANNELS 3 Xrotation Yrotation Zrotation
			JOINT mixamorig:Spine2
			{
				OFFSET -0.020600 26.552490 -3.193300
				CHANNELS 3 Xrotation Yrotation Zrotation
				JOINT mixamorig:Neck
				{
					OFFSET -0.060000 30.701813 1.352200
					CHANNELS 3 Xrotation Yrotation Zrotation
					JOINT mixamorig:Head
					{
						OFFSET -0.087200 22.547607 3.670900
						CHANNELS 3 Xrotation Yrotation Zrotation
						JOINT mixamorig:HeadTop_End
						{
							OFFSET -0.830600 40.355194 7.893500
							CHANNELS 3 Xrotation Yrotation Zrotation
							End Site
							{
								OFFSET 0.000000 30.592346 0.000000
							}
						}
						JOINT mixamorig:RightEye
						{
							OFFSET -6.302100 18.118591 16.197100
							CHANNELS 3 Xrotation Yrotation Zrotation
							End Site
							{
								OFFSET 0.000000 30.592346 0.000000
							}
						}
						JOINT mixamorig:LeftEye
						{
							OFFSET 6.741500 18.382690 16.401899
							CHANNELS 3 Xrotation Yrotation Zrotation
							End Site
							{
								OFFSET 0.000000 30.592346 0.000000
							}
						}
					}
				}
				JOINT mixamorig:LeftShoulder
				{
					OFFSET 11.924900 18.230499 1.425400
					CHANNELS 3 Xrotation Yrotation Zrotation
					JOINT mixamorig:LeftArm
					{
						OFFSET 25.435989 -0.697632 -5.229300
						CHANNELS 3 Xrotation Yrotation Zrotation
						JOINT mixamorig:LeftForeArm
						{
							OFFSET 54.684776 0.000000 0.000000
							CHANNELS 3 Xrotation Yrotation Zrotation
							JOINT mixamorig:LeftHand
							{
								OFFSET 55.098175 0.000000 0.000000
								CHANNELS 3 Xrotation Yrotation Zrotation
								JOINT mixamorig:LeftHandMiddle1
								{
									OFFSET 23.369751 0.000000 0.000000
									CHANNELS 3 Xrotation Yrotation Zrotation
									JOINT mixamorig:LeftHandMiddle2
									{
										OFFSET 6.378677 0.000000 0.000000
										CHANNELS 3 Xrotation Yrotation Zrotation
										JOINT mixamorig:LeftHandMiddle3
										{
											OFFSET 6.148331 0.000000 0.000000
											CHANNELS 3 Xrotation Yrotation Zrotation
											JOINT mixamorig:LeftHandMiddle4
											{
												OFFSET 6.582504 0.000000 0.000000
												CHANNELS 3 Xrotation Yrotation Zrotation
												End Site
												{
													OFFSET -1.168900 6.395691 1.028606
												}
											}
										}
									}
								}
								JOINT mixamorig:LeftHandThumb1
								{
									OFFSET 7.235672 -3.848206 5.434273
									CHANNELS 3 Xrotation Yrotation Zrotation
									JOINT mixamorig:LeftHandThumb2
									{
										OFFSET 6.568451 -3.792297 3.792300
										CHANNELS 3 Xrotation Yrotation Zrotation
										JOINT mixamorig:LeftHandThumb3
										{
											OFFSET 6.063080 -3.500519 3.500518
											CHANNELS 3 Xrotation Yrotation Zrotation
											JOINT mixamorig:LeftHandThumb4
											{
												OFFSET 4.793182 -2.767334 2.767349
												CHANNELS 3 Xrotation Yrotation Zrotation
												End Site
												{
													OFFSET 0.101639 6.054260 1.275483
												}
											}
										}
									}
								}
								JOINT mixamorig:LeftHandIndex1
								{
									OFFSET 23.101074 -0.309540 4.992809
									CHANNELS 3 Xrotation Yrotation Zrotation
									JOINT mixamorig:LeftHandIndex2
									{
										OFFSET 6.226883 0.000000 0.000000
										CHANNELS 3 Xrotation Yrotation Zrotation
										JOINT mixamorig:LeftHandIndex3
										{
											OFFSET 6.094330 0.000000 0.000000
											CHANNELS 3 Xrotation Yrotation Zrotation
											JOINT mixamorig:LeftHandIndex4
											{
												OFFSET 5.482605 0.000000 0.000000
												CHANNELS 3 Xrotation Yrotation Zrotation
												End Site
												{
													OFFSET -1.427902 5.233032 0.797164
												}
											}
										}
									}
								}
								JOINT mixamorig:LeftHandRing1
								{
									OFFSET 22.299240 0.021149 -3.964172
									CHANNELS 3 Xrotation Yrotation Zrotation
									JOINT mixamorig:LeftHandRing2
									{
										OFFSET 6.321869 0.000000 0.000000
										CHANNELS 3 Xrotation Yrotation Zrotation
										JOINT mixamorig:LeftHandRing3
										{
											OFFSET 5.899796 0.000000 0.000000
											CHANNELS 3 Xrotation Yrotation Zrotation
											JOINT mixamorig:LeftHandRing4
											{
												OFFSET 6.517899 0.000000 0.000000
												CHANNELS 3 Xrotation Yrotation Zrotation
												End Site
												{
													OFFSET -1.637299 6.232208 0.980890
												}
											}
										}
									}
								}
								JOINT mixamorig:LeftHandPinky1
								{
									OFFSET 20.463791 -0.302338 -8.562233
									CHANNELS 3 Xrotation Yrotation Zrotation
									JOINT mixamorig:LeftHandPinky2
									{
										OFFSET 6.908646 0.000000 0.000000
										CHANNELS 3 Xrotation Yrotation Zrotation
										JOINT mixamorig:LeftHandPinky3
										{
											OFFSET 4.622849 0.000000 0.000000
											CHANNELS 3 Xrotation Yrotation Zrotation
											JOINT mixamorig:LeftHandPinky4
											{
												OFFSET 5.216080 0.000000 0.000000
												CHANNELS 3 Xrotation Yrotation Zrotation
												End Site
												{
													OFFSET -0.606308 5.116241 0.814926
												}
											}
										}
									}
								}
							}
						}
					}
				}
				JOINT mixamorig:RightShoulder
				{
					OFFSET -12.001300 18.284088 1.348900
					CHANNELS 3 Xrotation Yrotation Zrotation
					JOINT mixamorig:RightArm
					{
						OFFSET -25.308500 -0.751312 -5.164599
						CHANNELS 3 Xrotation Yrotation Zrotation
						JOINT mixamorig:RightForeArm
						{
							OFFSET -54.684429 0.000000 0.000000
							CHANNELS 3 Xrotation Yrotation Zrotation
							JOINT mixamorig:RightHand
							{
								OFFSET -55.150291 0.000000 0.000000
								CHANNELS 3 Xrotation Yrotation Zrotation
								JOINT mixamorig:RightHandMiddle1
								{
									OFFSET -23.317566 0.000000 0.000000
									CHANNELS 3 Xrotation Yrotation Zrotation
									JOINT mixamorig:RightHandMiddle2
									{
										OFFSET -6.378403 0.000000 0.000000
										CHANNELS 3 Xrotation Yrotation Zrotation
										JOINT mixamorig:RightHandMiddle3
										{
											OFFSET -6.148193 0.000000 0.000000
											CHANNELS 3 Xrotation Yrotation Zrotation
											JOINT mixamorig:RightHandMiddle4
											{
												OFFSET -6.583389 0.000000 0.000000
												CHANNELS 3 Xrotation Yrotation Zrotation
												End Site
												{
													OFFSET 1.171692 6.395905 1.029786
												}
											}
										}
									}
								}
								JOINT mixamorig:RightHandThumb1
								{
									OFFSET -7.190521 -3.860474 5.435846
									CHANNELS 3 Xrotation Yrotation Zrotation
									JOINT mixamorig:RightHandThumb2
									{
										OFFSET -6.567429 -3.791718 3.791708
										CHANNELS 3 Xrotation Yrotation Zrotation
										JOINT mixamorig:RightHandThumb3
										{
											OFFSET -6.062469 -3.500153 3.500166
											CHANNELS 3 Xrotation Yrotation Zrotation
											JOINT mixamorig:RightHandThumb4
											{
												OFFSET -4.792618 -2.767029 2.767022
												CHANNELS 3 Xrotation Yrotation Zrotation
												End Site
												{
													OFFSET -0.100327 6.053253 1.276754
												}
											}
										}
									}
								}
								JOINT mixamorig:RightHandIndex1
								{
									OFFSET -23.048981 -0.310791 4.992554
									CHANNELS 3 Xrotation Yrotation Zrotation
									JOINT mixamorig:RightHandIndex2
									{
										OFFSET -6.227539 0.000000 0.000000
										CHANNELS 3 Xrotation Yrotation Zrotation
										JOINT mixamorig:RightHandIndex3
										{
											OFFSET -6.095047 0.000000 0.000000
											CHANNELS 3 Xrotation Yrotation Zrotation
											JOINT mixamorig:RightHandIndex4
											{
												OFFSET -5.484772 0.000000 0.000000
												CHANNELS 3 Xrotation Yrotation Zrotation
												End Site
												{
													OFFSET 1.420593 5.237305 0.797056
												}
											}
										}
									}
								}
								JOINT mixamorig:RightHandRing1
								{
									OFFSET -22.246323 0.020569 -3.963762
									CHANNELS 3 Xrotation Yrotation Zrotation
									JOINT mixamorig:RightHandRing2
									{
										OFFSET -6.322128 0.000000 0.000000
										CHANNELS 3 Xrotation Yrotation Zrotation
										JOINT mixamorig:RightHandRing3
										{
											OFFSET -5.900024 0.000000 0.000000
											CHANNELS 3 Xrotation Yrotation Zrotation
											JOINT mixamorig:RightHandRing4
											{
												OFFSET -6.518356 0.000000 0.000000
												CHANNELS 3 Xrotation Yrotation Zrotation
												End Site
												{
													OFFSET 1.636398 6.232697 0.982186
												}
											}
										}
									}
								}
								JOINT mixamorig:RightHandPinky1
								{
									OFFSET -20.411011 -0.303314 -8.561701
									CHANNELS 3 Xrotation Yrotation Zrotation
									JOINT mixamorig:RightHandPinky2
									{
										OFFSET -6.907349 0.000000 0.000000
										CHANNELS 3 Xrotation Yrotation Zrotation
										JOINT mixamorig:RightHandPinky3
										{
											OFFSET -4.623840 0.000000 0.000000
											CHANNELS 3 Xrotation Yrotation Zrotation
											JOINT mixamorig:RightHandPinky4
											{
												OFFSET -5.218353 0.000000 0.000000
												CHANNELS 3 Xrotation Yrotation Zrotation
												End Site
												{
													OFFSET 0.602097 5.118835 0.816273
												}
											}
										}
									}
								}
							}
						}
					}
				}
			}
		}
	}
	JOINT mixamorig:LeftUpLeg
	{
		OFFSET 18.168400 -13.561905 -0.039000
		CHANNELS 3 Xrotation Yrotation Zrotation
		JOINT mixamorig:LeftLeg
		{
			OFFSET 0.577358 -80.825211 -3.695000
			CHANNELS 3 Xrotation Yrotation Zrotation
			JOINT mixamorig:LeftFoot
			{
				OFFSET -0.577356 -83.370262 -6.520700
				CHANNELS 3 Xrotation Yrotation Zrotation
				JOINT mixamorig:LeftToeBase
				{
					OFFSET 0.750401 -20.798306 25.135401
					CHANNELS 3 Xrotation Yrotation Zrotation
					JOINT mixamorig:LeftToe_End
					{
						OFFSET -0.000500 0.001200 19.917799
						CHANNELS 3 Xrotation Yrotation Zrotation
						End Site
						{
							OFFSET 0.000000 19.917805 0.000000
						}
					}
				}
			}
		}
	}
	JOINT mixamorig:RightUpLeg
	{
		OFFSET -18.162500 -13.585098 -0.041000
		CHANNELS 3 Xrotation Yrotation Zrotation
		JOINT mixamorig:RightLeg
		{
			OFFSET -0.595024 -80.945297 -3.631900
			CHANNELS 3 Xrotation Yrotation Zrotation
			JOINT mixamorig:RightFoot
			{
				OFFSET 0.595024 -83.218193 -6.561200
				CHANNELS 3 Xrotation Yrotation Zrotation
				JOINT mixamorig:RightToeBase
				{
					OFFSET -0.753601 -20.807106 25.115000
					CHANNELS 3 Xrotation Yrotation Zrotation
					JOINT mixamorig:RightToe_End
					{
						OFFSET 0.000299 0.001700 19.918200
						CHANNELS 3 Xrotation Yrotation Zrotation
						End Site
						{
							OFFSET 0.000000 19.918203 0.000000
						}
					}
				}
			}
		}
	}
}
MOTION
Frames: 6
Frame Time: 0.033333
0.332828 139.451157 -13.860403 6.993120 2.182302 -3.471271 10.300738 -1.208980 0.277045 20.606414 -2.862789 0.476266 20.606409 -2.862790 0.476264 -8.991163 8.741072 -1.909510 -40.003141 2.273851 1.088921 0.000000 0.000000 -0.000000 0.000000 0.000000 -0.000000 0.000000 0.000000 -0.000000 7.617366 -8.978441 -9.287693 -24.521853 -24.926562 -49.019390 30.113413 -87.045953 30.080078 83.140314 -8.647229 -40.014677 -4.660835 1.030307 -33.775777 -0.554553 -1.488215 -35.120341 -0.000002 -0.000006 0.000005 -0.000001 0.000002 0.000003 3.712539 14.060627 -6.685162 3.280295 9.370915 1.667159 0.000007 -0.000016 0.000005 -0.000002 0.000001 -0.000000 -10.972711 0.633151 -19.075194 0.740159 1.851761 -22.932152 -0.000005 -0.000016 0.000010 -0.000000 -0.000002 0.000000 -0.403267 2.683444 -40.510019 -1.287301 -2.395435 -40.426281 0.000002 0.000012 -0.000005 -0.000002 -0.000001 0.000002 2.631922 -1.689015 -51.089805 -3.611582 -7.747905 -48.997749 0.000005 0.000003 -0.000007 -0.000001 -0.000001 0.000001 0.000035 -0.000005 -0.000001 -23.781756 25.489965 60.456197 5.307160 74.711020 -5.120122 58.059941 -1.101508 -19.649781 -0.470518 -1.395847 29.360743 -0.170092 0.859050 17.108717 0.000005 0.000003 -0.000008 0.000000 -0.000001 -0.000001 -29.052701 2.441855 1.964074 6.157437 -21.976135 -5.408975 0.000008 -0.000001 -0.000001 0.000002 -0.000001 0.000001 0.647375 -0.932750 32.315527 0.124716 -1.116947 17.135215 0.000007 0.000006 0.000001 0.000001 -0.000001 -0.000003 -6.669518 -14.321307 32.031009 -0.189329 0.083396 18.859230 0.000000 -0.000001 0.000007 -0.000001 0.000000 0.000000 -8.411979 -18.422385 42.399584 -0.402091 2.038869 20.632495 0.000008 0.000018 0.000007 -0.000001 -0.000000 0.000001 -87.276301 -13.827030 16.587517 90.731550 1.444865 -2.169669 18.186690 2.845978 -13.226854 -28.772565 -0.301486 1.158986 -0.000000 0.000003 0.000000 -84.700793 -2.455704 -10.806906 64.569965 1.539230 2.222608 13.423431 -1.110544 1.249228 0.000009 -0.000001 -0.000001 -0.000000 -0.000001 0.000000 
0.336275 139.454437 -13.859371 7.014496 2.194046 -3.504694 10.299449 -1.208101 0.276316 20.603819 -2.861960 0.474388 20.603815 -2.861961 0.474387 -9.041363 8.738626 -1.902442 -40.105454 2.274333 1.065746 0.000000 -0.000000 -0.000000 0.000000 -0.000000 -0.000000 0.000000 -0.000000 -0.000000 7.613372 -8.973736 -9.329558 -24.446729 -24.949047 -48.939323 30.815034 -87.100198 30.783014 83.448683 -9.257848 -40.015326 -4.820155 0.740947 -32.559505 -0.557881 -1.490201 -35.205923 -0.000000 -0.000006 0.000007 0.000004 0.000001 0.000002 3.326053 13.377011 -6.585423 2.904495 8.686464 1.861867 0.000011 -0.000015 0.000006 -0.000001 -0.000000 -0.000001 -10.875412 0.145077 -17.355307 0.741731 1.855202 -22.978225 -0.000007 -0.000016 0.000015 0.000001 0.000000 -0.000001 -0.382379 2.717381 -39.279923 -1.282245 -2.394279 -40.467450 0.000002 0.000010 -0.000004 0.000001 0.000000 -0.000000 2.633884 -1.682262 -50.291625 -3.617285 -7.753310 -49.040792 0.000006 0.000006 -0.000007 0.000000 0.000001 0.000000 -0.014780 -0.084175 0.001265 -23.815417 25.561326 60.510845 5.287427 74.663059 -5.099238 58.051260 -1.057337 -19.670631 -0.464120 -1.439112 29.406341 -0.170359 0.859639 17.118845 0.000003 0.000003 -0.000006 -0.000001 -0.000000 -0.000001 -29.053060 2.469552 1.953215 6.130718 -21.916259 -5.417615 0.000005 -0.000001 -0.000001 -0.000001 -0.000003 0.000003 0.642740 -0.926574 32.353407 0.124702 -1.116906 17.134265 0.000006 0.000006 0.000000 0.000001 0.000000 -0.000002 -6.664774 -14.297644 32.105499 -0.189931 0.085147 18.887848 0.000000 0.000000 0.000004 -0.000001 0.000000 -0.000001 -8.399046 -18.438258 42.480631 -0.402086 2.038886 20.632502 0.000009 0.000018 0.000008 -0.000001 0.000000 0.000001 -87.310711 -13.841332 16.594716 90.729234 1.436281 -2.170414 18.188106 2.836700 -13.199452 -28.770266 -0.301449 1.158901 -0.000000 -0.000001 0.000000 -84.717739 -2.475755 -10.806128 64.572431 1.536996 2.222522 13.412287 -1.129946 1.246686 0.009694 0.000020 0.000410 -0.000000 -0.000000 -0.000000 
0.342574 139.458633 -13.854162 7.037729 2.208708 -3.531367 10.297984 -1.208710 0.276033 20.600870 -2.863770 0.473797 20.600849 -2.863769 0.473796 -9.130648 8.734853 -1.890991 -40.296327 2.267195 1.042255 -0.000000 -0.000000 -0.000000 -0.000000 -0.000000 -0.000000 -0.000000 -0.000000 -0.000000 7.608745 -8.971494 -9.387251 -24.292034 -24.916301 -48.776970 32.520744 -87.223175 32.491592 83.851425 -10.311593 -40.195093 -4.899778 0.486637 -31.188064 -0.561675 -1.492470 -35.303472 -0.000000 -0.000009 0.000003 0.000003 0.000002 0.000004 2.978227 12.758070 -6.478444 2.570662 8.067682 2.033313 0.000004 -0.000016 0.000006 -0.000002 0.000003 0.000001 -10.823266 -0.455432 -15.788804 0.741858 1.855302 -22.979053 -0.000009 -0.000016 0.000015 0.000004 0.000001 0.000001 -0.322584 2.770288 -38.082601 -1.277574 -2.392184 -40.473095 0.000003 0.000007 -0.000003 0.000000 0.000003 -0.000001 2.650123 -1.667593 -49.363731 -3.627195 -7.762410 -49.114388 0.000007 0.000004 -0.000004 -0.000002 0.000001 0.000001 -0.029541 -0.169438 0.008612 -23.850582 25.644427 60.560665 5.296039 74.606751 -5.110923 58.029451 -1.012634 -19.692525 -0.474859 -1.408327 29.450929 -0.170356 0.859612 17.118476 0.000004 0.000003 -0.000006 -0.000001 0.000000 -0.000001 -29.053849 2.484347 1.949975 6.124507 -21.903988 -5.419683 0.000004 -0.000001 0.000001 0.000001 -0.000001 0.000005 0.639939 -0.923117 32.375653 0.124504 -1.117378 17.141721 0.000006 0.000008 0.000002 0.000002 0.000001 0.000001 -6.657956 -14.316947 32.152863 -0.189951 0.085254 18.889499 0.000001 -0.000000 0.000007 -0.000001 0.000000 -0.000002 -8.388956 -18.449628 42.533504 -0.402103 2.038883 20.632524 0.000008 0.000017 0.000007 0.000000 0.000000 -0.000000 -87.344917 -13.844628 16.603432 90.730887 1.432543 -2.170866 18.184081 2.820998 -13.167594 -28.767958 -0.301403 1.158822 -0.000000 -0.000001 0.000000 -84.735737 -2.493986 -10.812902 64.574774 1.535495 2.222435 13.400029 -1.144214 1.243364 0.020912 0.000030 0.000882 -0.000000 -0.000000 0.000000 
0.354814 139.458267 -13.840080 7.057687 2.221456 -3.550774 10.294074 -1.209991 0.275974 20.593049 -2.866653 0.473760 20.593070 -2.866656 0.473761 -9.249468 8.725335 -1.872614 -40.556287 2.240621 1.017958 -0.000000 0.000000 -0.000000 -0.000000 0.000000 -0.000000 -0.000000 0.000000 -0.000000 7.602639 -8.969388 -9.463161 -24.068555 -24.882526 -48.534136 35.150185 -87.388104 35.125409 84.210031 -11.584826 -40.566874 -4.940987 0.277399 -29.990514 -0.565569 -1.498124 -35.382033 -0.000002 -0.000011 -0.000001 0.000004 0.000000 -0.000002 2.692760 12.262337 -6.320479 2.344871 7.643267 2.148495 0.000007 -0.000015 0.000007 0.000001 0.000001 0.000001 -10.777846 -0.964429 -14.575350 0.741445 1.854225 -22.963924 -0.000003 -0.000014 0.000015 0.000004 0.000001 0.000001 -0.266385 2.819277 -37.044474 -1.277292 -2.392168 -40.484864 0.000002 0.000007 -0.000005 -0.000004 0.000003 0.000003 2.685029 -1.641945 -48.411182 -3.641875 -7.775694 -49.222069 0.000003 0.000005 -0.000008 -0.000002 0.000000 0.000000 -0.039725 -0.234394 0.041646 -23.873364 25.723160 60.577276 5.302660 74.552813 -5.124102 58.008298 -0.972976 -19.698127 -0.472283 -1.417928 29.445348 -0.170395 0.859680 17.119840 0.000005 0.000003 -0.000006 0.000001 0.000000 0.000003 -29.053996 2.488835 1.948545 6.104976 -21.870677 -5.422564 0.000006 -0.000001 0.000002 0.000001 0.000002 -0.000002 0.632861 -0.913383 32.434154 0.126706 -1.111054 17.041631 0.000005 0.000006 0.000000 0.000002 0.000000 -0.000003 -6.650542 -14.317648 32.151258 -0.189906 0.085084 18.887090 0.000002 0.000000 0.000005 -0.000001 -0.000000 0.000003 -8.387811 -18.446237 42.549589 -0.402075 2.038889 20.632494 0.000008 0.000018 0.000008 -0.000001 0.000000 0.000001 -87.376342 -13.840934 16.610718 90.740252 1.427035 -2.171183 18.168626 2.800556 -13.133640 -28.766622 -0.301381 1.158777 -0.000000 -0.000001 0.000000 -84.751610 -2.508914 -10.825361 64.580245 1.534962 2.222413 13.391065 -1.150514 1.236567 0.032391 0.000051 0.001368 0.000000 -0.000001 -0.000000 
0.371916 139.457687 -13.816711 7.066444 2.228068 -3.564345 10.287681 -1.210138 0.275564 20.580267 -2.867370 0.472565 20.580243 -2.867368 0.472566 -9.384303 8.708699 -1.853043 -40.845474 2.190585 0.992701 -0.000000 -0.000000 -0.000000 -0.000000 -0.000000 -0.000000 -0.000000 -0.000000 -0.000000 7.600225 -8.979176 -9.533857 -23.821461 -24.890657 -48.255396 38.205968 -87.547855 38.185668 84.315926 -12.727116 -41.105888 -4.976526 0.055125 -28.757501 -0.569769 -1.504186 -35.466362 0.000003 -0.000005 0.000002 0.000002 0.000004 0.000004 2.403864 11.773535 -6.073595 2.142023 7.257844 2.251392 0.000008 -0.000015 0.000006 -0.000001 0.000000 -0.000000 -10.676556 -1.329470 -13.406707 0.742758 1.857001 -23.001012 -0.000003 -0.000016 0.000014 -0.000002 -0.000001 0.000000 -0.240844 2.852243 -35.962510 -1.280584 -2.395736 -40.563513 0.000006 0.000015 -0.000003 0.000002 0.000002 0.000001 2.717255 -1.620699 -47.357465 -3.665514 -7.796785 -49.394132 0.000005 0.000007 -0.000008 -0.000001 -0.000005 0.000002 -0.042523 -0.264580 0.110206 -23.870622 25.787864 60.540536 5.296017 74.510138 -5.127386 57.992179 -0.946748 -19.675733 -0.484305 -1.391208 29.518298 -0.169449 0.857731 17.085172 0.000005 0.000004 -0.000008 0.000001 -0.000000 0.000001 -29.060153 2.505104 1.954618 6.103582 -21.865838 -5.424399 0.000008 0.000001 0.000001 -0.000002 -0.000000 -0.000002 0.630826 -0.914512 32.459965 0.125230 -1.115143 17.106443 0.000005 0.000007 0.000001 -0.000000 -0.000000 -0.000003 -6.648317 -14.303254 32.202184 -0.189878 0.084933 18.884807 0.000001 -0.000000 0.000004 -0.000001 0.000000 -0.000002 -8.390752 -18.438196 42.555548 -0.402088 2.038881 20.632526 0.000009 0.000018 0.000007 0.000000 -0.000000 0.000000 -87.394033 -13.839583 16.618871 90.753796 1.420881 -2.171233 18.167967 2.782915 -13.111470 -28.772681 -0.301481 1.158992 -0.000000 0.000001 0.000000 -84.759369 -2.517774 -10.834505 64.592744 1.535485 2.222616 13.386329 -1.153991 1.225515 0.041744 0.000064 0.001764 -0.000000 -0.000001 0.000000 
0.390586 139.455032 -13.790909 7.060642 2.231701 -3.573057 10.279518 -1.209512 0.275120 20.563855 -2.866543 0.470944 20.563830 -2.866542 0.470943 -9.533855 8.693258 -1.841883 -41.121017 2.136185 0.970749 -0.000000 -0.000000 -0.000000 -0.000000 -0.000000 -0.000000 -0.000000 -0.000000 -0.000000 7.603639 -9.009001 -9.600715 -23.597972 -24.946720 -47.977667 41.086077 -87.670614 41.070132 84.010555 -13.542505 -41.861301 -5.004603 -0.183578 -27.465634 -0.574482 -1.510634 -35.564283 -0.000000 -0.000009 -0.000003 0.000001 -0.000001 0.000002 2.159328 11.364962 -5.799387 1.949349 6.888122 2.348665 0.000004 -0.000015 0.000005 0.000001 0.000001 0.000000 -10.550483 -1.614668 -12.292169 0.743997 1.859686 -23.037000 -0.000007 -0.000013 0.000015 0.000002 -0.000000 -0.000001 -0.229778 2.874985 -34.940294 -1.283116 -2.398557 -40.625473 0.000003 0.000010 -0.000002 0.000001 -0.000005 -0.000003 2.738736 -1.610091 -46.380328 -3.688849 -7.817483 -49.563432 0.000004 0.000008 -0.000006 -0.000001 0.000001 0.000003 -0.038446 -0.259023 0.194530 -23.850467 25.837665 60.470656 5.300640 74.470017 -5.144993 57.977924 -0.936026 -19.630483 -0.475979 -1.424284 29.509190 -0.169101 0.856963 17.072095 0.000003 0.000003 -0.000007 -0.000001 0.000000 -0.000002 -29.054952 2.498449 1.951340 6.118940 -21.887715 -5.425154 0.000008 -0.000001 0.000004 -0.000001 0.000001 -0.000000 0.636913 -0.933151 32.419636 0.126735 -1.110774 17.037169 0.000006 0.000008 0.000002 0.000001 0.000000 -0.000003 -6.651834 -14.277483 32.246904 -0.189903 0.085111 18.886965 0.000002 -0.000001 0.000010 -0.000000 0.000000 0.000000 -8.394733 -18.432410 42.581459 -0.402097 2.038866 20.632501 0.000008 0.000018 0.000007 -0.000001 -0.000000 -0.000000 -87.393876 -13.847713 16.618567 90.771957 1.418964 -2.170794 18.177389 2.777298 -13.109908 -28.784821 -0.301669 1.159420 -0.000000 0.000001 0.000000 -84.754062 -2.517900 -10.838388 64.609758 1.536547 2.223005 13.382536 -1.155347 1.216889 0.043150 0.000070 0.001825 -0.000000 0.000001 -0.000000 
